:SAMPLES-PER-SECOND 30
:FRAME-RANGE 1-668
:FULLY-SPECIFIED
:DEGREES
355
root  2.49392 40.3699 25.8909 -173.983 -0.221756 179.459
RightUpLeg  -14.8959 4.30235 -6.8711
RightLeg  25.4291 9.3881 4.62201
RightFoot  -5.13067 -0.508357 8.70867
RightToes  5.38607e-012 1.2921e-014 -6.02303e-014
Spine  1.89179 6.94528 9.56008
Spine1  8.84354 9.30624 -7.48006
HEad  27.3145 40.3948 1.00331
LeftShoulder1  6.74142e-005 3.30213 2.62235
LeftArm  21.053 -24.7637 5.5145
LeftForeArm  -4.5401 -48.3944 -12.9678
LeftHand  1.73721 -4.46858 -19.9619
RightShoulder  2.6412 7.90626 17.0412
RightArm  -43.468 -24.0985 12.9249
RightForeArm  75.6204 76.1848 36.7616
RightHand  0.676892 -0.0484454 14.725
LeftUpLeg  -13.7905 3.77848 3.1564
LeftLeg  27.0545 6.72867 4.06453
LeftFoot  -0.804342 1.31416 -14.1419
LeftToes  -6.11857e-011 5.00151e-011 -2.22593e-011
356
root  2.48731 40.2289 25.8015 -173.108 1.28552 177.664
RightUpLeg  -16.3459 5.10602 -9.06716
RightLeg  26.3742 9.71377 4.99045
RightFoot  -6.79094 -0.37112 8.16234
RightToes  5.38607e-012 1.2921e-014 -6.02303e-014
Spine  1.19069 7.65066 10.1501
Spine1  9.02541 11.3378 -12.6241
HEad  26.5023 40.9055 2.28542
LeftShoulder1  -0.185949 5.03376 -2.84273
LeftArm  3.61276 -26.835 11.2821
LeftForeArm  -0.705044 -46.7182 -11.9568
LeftHand  1.61785 -4.03802 -19.466
RightShoulder  2.73726 8.46919 16.7065
RightArm  -38.059 -29.2273 19.3726
RightForeArm  102.124 79.8631 51.3993
RightHand  0.239446 -3.10988 13.4245
LeftUpLeg  -14.0149 5.0863 1.02365
LeftLeg  26.4315 6.8452 4.03644
LeftFoot  -1.49099 1.22234 -14.0253
LeftToes  -6.11857e-011 5.00151e-011 -2.22593e-011
357
root  2.48158 40.0519 25.7021 -172.417 1.05327 176.42
RightUpLeg  -17.0338 3.80919 -10.432
RightLeg  27.1444 10.1391 5.38992
RightFoot  -8.64856 -0.236828 7.56066
RightToes  5.38607e-012 1.2921e-014 -6.02303e-014
Spine  -0.0132051 7.427 9.55807
Spine1  9.09659 11.6907 -15.2897
HEad  25.729 42.302 3.12896
LeftShoulder1  -0.345563 5.75181 -6.62646
LeftArm  -12.5367 -26.1627 13.7295
LeftForeArm  6.96261 -46.2579 -11.2262
LeftHand  1.40957 -3.35646 -18.3285
RightShoulder  2.67223 8.45054 16.1418
RightArm  -33.733 -31.0473 25.6478
RightForeArm  105.931 79.7183 48.5954
RightHand  -0.0756011 -5.79814 9.66448
LeftUpLeg  -14.2186 5.09919 -0.418342
LeftLeg  25.8675 6.54842 3.79842
LeftFoot  -2.79936 1.03238 -13.5494
LeftToes  -6.11857e-011 5.00151e-011 -2.22593e-011
358
root  2.45805 39.8804 25.5924 -172.347 -0.720642 175.935
RightUpLeg  -16.125 2.901 -10.7797
RightLeg  26.9144 9.22216 4.84228
RightFoot  -10.6124 -0.118706 7.30527
RightToes  5.38607e-012 1.2921e-014 -6.02303e-014
Spine  -1.24098 6.39798 8.71833
Spine1  9.14192 10.6604 -15.96
HEad  25.9088 44.0223 4.07092
LeftShoulder1  -0.346808 5.37765 -9.53959
LeftArm  -25.5076 -24.7875 15.0737
LeftForeArm  14.5515 -44.9406 -10.1698
LeftHand  1.1638 -2.49542 -16.8509
RightShoulder  2.63977 7.92028 16.9953
RightArm  -30.1437 -30.7589 28.9311
RightForeArm  102.371 78.4465 40.9121
RightHand  -0.15063 -7.26069 6.37375
LeftUpLeg  -13.7505 4.62409 -0.858873
LeftLeg  25.184 5.44516 3.13959
LeftFoot  -4.46206 0.772 -12.3628
LeftToes  -6.11857e-011 5.00151e-011 -2.22593e-011
359
root  2.48629 39.7672 25.5435 -172.935 -4.14825 176.168
RightUpLeg  -14.2315 1.99411 -10.0671
RightLeg  26.5935 7.23732 3.71009
RightFoot  -11.9754 -0.0399535 7.48173
RightToes  5.38607e-012 1.2921e-014 -6.02303e-014
Spine  -1.48352 4.59467 6.62904
Spine1  8.076 7.98155 -13.6653
HEad  27.6112 46.2435 5.16293
LeftShoulder1  -0.137985 4.06926 -10.997
LeftArm  -34.8642 -22.1685 14.3571
LeftForeArm  21.0272 -43.4788 -9.18857
LeftHand  0.879155 -1.21429 -15.3208
RightShoulder  2.56527 6.82033 18.9613
RightArm  -27.4021 -27.4897 29.2005
RightForeArm  94.4719 75.7735 31.5915
RightHand  -0.146619 -7.64809 5.03562
LeftUpLeg  -12.8887 3.40158 -0.233812
LeftLeg  24.5563 3.68846 2.19156
LeftFoot  -5.97979 0.566011 -11.2969
LeftToes  -6.11857e-011 5.00151e-011 -2.22593e-011
360
root  2.59434 39.681 25.493 -173.616 -7.86644 176.536
RightUpLeg  -12.3148 0.387505 -9.01676
RightLeg  26.3452 5.34171 2.65595
RightFoot  -12.979 0.017437 7.38127
RightToes  5.38607e-012 1.2921e-014 -6.02303e-014
Spine  -1.43257 2.35587 2.3431
Spine1  6.59217 4.34856 -8.96737
HEad  30.1716 49.5817 6.96553
LeftShoulder1  0.18793 2.22466 -10.3461
LeftArm  -41.7427 -17.1261 11.5924
LeftForeArm  26.2951 -42.3735 -8.45874
LeftHand  0.555436 0.438194 -13.1565
RightShoulder  2.38697 5.04607 22.425
RightArm  -23.0173 -20.8387 27.525
RightForeArm  88.5665 71.0412 22.2879
RightHand  -0.0807153 -8.98168 0.96787
LeftUpLeg  -12.2053 0.779096 0.633756
LeftLeg  24.1839 2.76521 1.70883
LeftFoot  -6.96037 0.449808 -10.6486
LeftToes  -6.11857e-011 5.00151e-011 -2.22593e-011
361
root  2.72176 39.6389 25.457 -173.851 -11.7731 176.983
RightUpLeg  -10.8293 -1.97881 -7.9058
RightLeg  25.7588 3.82703 1.79235
RightFoot  -13.5699 0.0479034 7.19348
RightToes  5.38607e-012 1.2921e-014 -6.02303e-014
Spine  -2.47174 -0.188879 -2.92826
Spine1  7.23063 0.371649 -2.78577
HEad  31.4237 54.0979 7.68438
LeftShoulder1  0.481777 0.266033 -8.62527
LeftArm  -46.2247 -10.725 8.86857
LeftForeArm  31.2371 -41.3825 -7.81937
LeftHand  0.279063 2.13097 -10.5619
RightShoulder  2.0259 2.88681 26.7382
RightArm  -20.3322 -11.7277 26.1446
RightForeArm  84.5804 64.618 15.5347
RightHand  0.114713 -10.2669 -3.89565
LeftUpLeg  -12.2363 -2.38922 1.57495
LeftLeg  23.8293 2.13888 1.38162
LeftFoot  -7.48692 0.384975 -10.091
LeftToes  -6.11857e-011 5.00151e-011 -2.22593e-011
362
root  2.85688 39.6303 25.4494 -174.288 -15.556 178.494
RightUpLeg  -9.56602 -2.58762 -5.57777
RightLeg  24.8729 1.08017 0.327993
RightFoot  -13.4731 0.0587879 8.06927
RightToes  5.38607e-012 1.2921e-014 -6.02303e-014
Spine  -2.84779 -2.3541 -7.43268
Spine1  7.94113 -3.44394 4.20575
HEad  31.9054 57.8172 7.56601
LeftShoulder1  0.709355 -1.70309 -6.73876
LeftArm  -46.7773 -5.47673 6.21178
LeftForeArm  35.946 -38.9493 -6.8067
LeftHand  0.0479899 4.22512 -7.76222
RightShoulder  1.78058 1.70776 29.5989
RightArm  -20.1042 -4.72762 25.8906
RightForeArm  80.5319 57.3316 11.1095
RightHand  0.441968 -10.9957 -9.95576
LeftUpLeg  -12.4435 -4.57218 3.64143
LeftLeg  23.3862 1.01246 0.822811
LeftFoot  -8.20658 0.306329 -9.38599
LeftToes  -6.11857e-011 5.00151e-011 -2.22593e-011
